HIERARCHY
ROOT Spine
{
    OFFSET 0.0 0.0 -0.0
    CHANNELS 6 Xposition Yposition Zposition Zrotation Xrotation Yrotation
    JOINT ShoulderCenter
    {
        OFFSET 0.0 32.85440444946289 0.0
        CHANNELS 3 Zrotation Xrotation Yrotation
        JOINT LeftShoulder
        {
            OFFSET 19.58982276916504 0.0 0.0
            CHANNELS 3 Zrotation Xrotation Yrotation
            JOINT LeftElbow
            {
                OFFSET 29.172470092773438 0.0 0.0
                CHANNELS 3 Zrotation Xrotation Yrotation
                JOINT LeftHand
                {
                    OFFSET 30.130428314208984 0.0 0.0
                    CHANNELS 3 Zrotation Xrotation Yrotation
                    End Site
                    {
                        OFFSET 12.05217170715332 0.0 0.0
                    }
                }
            }
        }
        JOINT RightShoulder
        {
            OFFSET -19.58982276916504 0.0 0.0
            CHANNELS 3 Zrotation Xrotation Yrotation
            JOINT RightElbow
            {
                OFFSET -29.172470092773438 0.0 0.0
                CHANNELS 3 Zrotation Xrotation Yrotation
                JOINT RightHand
                {
                    OFFSET -30.130428314208984 0.0 0.0
                    CHANNELS 3 Zrotation Xrotation Yrotation
                    End Site
                    {
                        OFFSET -12.05217170715332 0.0 0.0
                    }
                }
            }
        }
        End Site
        {
            OFFSET 0.0 13.14176082611084 0.0
        }
    }
    JOINT LeftHip
    {
        OFFSET 15.95254170039882 -15.95254170039882 0.0
        CHANNELS 3 Zrotation Xrotation Yrotation
        JOINT LeftKnee
        {
            OFFSET 0.0 -41.66917419433594 0.0
            CHANNELS 3 Zrotation Xrotation Yrotation
            JOINT LeftFoot
            {
                OFFSET 0.0 -48.57114791870117 0.0
                CHANNELS 3 Zrotation Xrotation Yrotation
                End Site
                {
                    OFFSET 0.0 0.0 19.4284610748291
                }
            }
        }
    }
    JOINT RightHip
    {
        OFFSET -15.95254170039882 -15.95254170039882 0.0
        CHANNELS 3 Zrotation Xrotation Yrotation
        JOINT RightKnee
        {
            OFFSET 0.0 -41.66917419433594 0.0
            CHANNELS 3 Zrotation Xrotation Yrotation
            JOINT RightFoot
            {
                OFFSET 0.0 -48.57114791870117 0.0
                CHANNELS 3 Zrotation Xrotation Yrotation
                End Site
                {
                    OFFSET 0.0 0.0 19.4284610748291
                }
            }
        }
    }
}
MOTION
Frames: 12
Frame Time: 0.03333333333333333
9.199999809265137 15.700000762939453 3.5 4.864513792125695 0.6940626896526826 90.08960578797152 -1.596222548893839e-07 -1.9877924964763582e-07 -4.864349396944021 95.15372379685972 -8.058838754847883 173.27427797624247 2.3305422401502664e-07 3.860200719343517e-06 30.56430268988829 -3.1805546814635168e-15 6.3611093629270335e-15 1.7655625192200634e-31 -91.24135148974571 -3.3228814383852345 -175.02974904252824 -1.964549271110194e-06 -1.5226911537046476e-06 -29.820743768109548 3.1805546814635168e-15 8.827812596100317e-32 3.1805546814635168e-15 4.348642105976707 6.0887635244892655 -29.864330567773727 0.7645192297381455 -1.4023150950085304 5.048751047033976 -3.975693351829396e-16 -3.975693351829396e-16 -4.5471992711548714e-15 -3.1504807179571697 5.410127924928231 25.64498911401665 -1.3126034063300873 -0.9094434414985363 -3.2423841061578353 2.0560872111034432e-32 -3.975693351829396e-16 5.926267902570694e-15
9.199999809265137 15.700000762939453 3.5 4.864513935482573 0.6940622904930895 90.12220662659814 2.607121667223404e-07 -2.0534660222533089e-07 -4.8969483280032335 95.05293022101783 -7.359240722311025 173.29844037759915 -2.1485518587567906e-06 -8.011076779266853e-07 30.47985130706336 -6.3611093629270335e-15 0.0 0.0 -91.26743212977753 -2.9452034993900438 -175.23867748633882 -2.575580738458306e-06 1.8995553225093606e-06 -29.526669347832755 -3.1805546814635168e-15 -1.7655625192200634e-31 6.3611093629270335e-15 4.3507713294911 5.947480501255291 -29.479921979920256 0.6310710194446845 -1.1850372077746147 4.250841085154226 -6.250160285324931e-33 3.975693351829397e-16 1.8014860500476953e-15 -3.1415477700896846 5.410635303622891 25.577670063885122 -1.2650265654149204 -0.7981033433267719 -2.8215319326206103 -5.963540027744093e-16 3.9756933518293955e-16 -1.428764798313689e-15
9.300000190734863 15.600000381469727 3.4000000953674316 5.037368311673721 1.0407574097665784 90.11284856880589 -3.164330446081832e-08 -1.8579121980814254e-07 -4.908849215016343 94.68184113621014 -6.987240024720166 172.97116586270064 2.202598215967685e-06 -2.0286154136135917e-07 30.44866198479998 0.0 3.1805546814635164e-15 0.0 -91.65303896205836 -2.6000367746424025 -175.09735378979855 2.9093798063235225e-07 -3.980613268665884e-06 -29.531673961403406 -3.1805546814635168e-15 1.7655625192200634e-31 -6.3611093629270335e-15 4.005057992054245 6.121054734070168 -29.916636606228984 0.5920719995561834 -1.0746198758435663 3.8984419087945694 3.9756933518293945e-16 -5.963540027744092e-16 -8.78379749919807e-15 -3.495847245427566 5.85732863429558 26.04947595506522 -1.4911956240977438 -1.2528192903081172 -4.397257395780053 0.0 0.0 -3.1370705354278827e-15
9.399999618530273 15.80000114440918 3.4000000953674316 5.399111788720493 1.2171678408291162 90.13033476470528 -5.183149975591743e-07 -2.203368984029988e-07 -4.93291212759883 94.355547323545 -5.938785351900706 172.46588512473218 -3.7219659685405183e-06 1.308056888835436e-06 30.34243490140801 -6.361109362927033e-15 6.361109362927033e-15 3.1805546814635168e-15 -91.86837787654532 -2.21718495497437 -174.95987919918505 -2.0339089674641315e-07 -7.530187292462399e-07 -29.42110854477178 3.1805546814635168e-15 6.3611093629270335e-15 -6.3611093629270335e-15 3.969514646245007 6.062457000569674 -28.164920213815503 0.041203980359261864 -0.630323243783579 2.2838384523767346 -3.975693351829395e-16 -5.963540027744092e-16 1.4660369234870894e-15 -3.67176984947053 6.492715766477352 26.465099711326907 -1.7749852654309972 -1.5412981760139675 -5.575739754584354 -1.987846675914698e-16 2.284541345670492e-33 -1.3169484227934873e-15
9.399999618530273 15.600000381469727 3.4000000953674316 5.555366739283667 1.732804692395602 90.12203122865004 2.461821244341216e-07 3.679867886423732e-08 -4.797825359205986 94.10110394717555 -6.715063761487405 172.3276057324837 2.464475557311727e-06 5.1392925825997e-07 30.487826998423554 1.7655625192200634e-31 -6.361109362927035e-15 3.1805546814635176e-15 -92.39042574657906 -2.1103693981089116 -174.84276018084398 -7.528619517151161e-07 2.1412568050042407e-06 -29.579575048445253 -3.1805546814635164e-15 2.648343778830095e-31 -9.541664044390549e-15 3.182389948721163 6.778395774190725 -29.711614891147217 0.7760349625197909 -1.1313136274461286 4.046954968652267 -1.946170599189108e-32 -5.963540027744094e-16 -3.739636559064525e-15 -4.3187310364958 6.238644913962312 26.190296827379317 -1.1577995251293876 -0.8592868698090865 -3.01287818060536 1.6487491787150252e-32 3.975693351829396e-16 -4.752195959608575e-15
9.399999618530273 15.600000381469727 3.4000000953674316 5.918059269844131 2.4310580640364425 90.10483622416942 -3.409350648048503e-07 1.5409629293766537e-07 -4.492654417959272 93.37421742403703 -7.057643819571852 172.22645343403957 -1.1829592205897825e-06 2.2902795631095065e-06 29.492480248280472 -6.3611093629270335e-15 9.54166404439055e-15 6.3611093629270335e-15 -92.94666005820487 -1.0224671904157063 -174.92131681975914 -6.660121812409573e-07 -2.504283542967759e-06 -29.276027386490426 -3.1805546814635168e-15 -8.827812596100317e-32 3.1805546814635168e-15 2.6259738866552107 7.140231645665625 -30.735121622069435 0.517488271647892 -1.1445196451083839 4.02459835954665 3.975693351829396e-16 2.2414367919785963e-33 6.460501696722769e-16 -4.883676203559838 6.737334079661328 27.13288482081053 -1.461155701903864 -0.8455395098724616 -2.9682206861391336 0.0 0.0 -6.212020862233431e-16
9.5 15.600000381469727 3.5 6.09083067065427 2.9502251199122504 89.32826259701561 -3.283614784631513e-07 7.178088378998707e-07 -3.767414761309067 93.15397622098483 -7.320600086580863 172.06338212296333 1.0090906977802739e-06 8.759039538376139e-07 29.516895135812526 5.29668755766019e-31 -6.3611093629270335e-15 9.54166404439055e-15 -93.42307493535195 -1.406767516816513 -175.20892901027074 -1.3043251868776272e-06 1.674855486823714e-06 -28.84906118125352 -3.1805546814635168e-15 -6.3611093629270335e-15 -3.1805546814635168e-15 2.009266266150609 7.341182857366665 -30.282171512534596 0.3145589935922834 -0.9947889809149931 3.3825622475059944 -1.594868486600155e-32 3.975693351829396e-16 4.596895438052739e-15 -5.633389327311686 6.83481568902889 28.15240397289263 -1.343534159392107 -0.9019919111100275 -3.2768350479914052 -1.9878466759146985e-16 -2.8233482668191933e-33 1.6275494659051594e-15
9.5 15.700000762939453 3.5 5.936029438826747 3.8283846758534996 89.68228144812656 -4.187937198251136e-07 9.723947603741646e-08 -3.8298854601690757 92.78574371429009 -8.22822778677435 172.25587113327202 -3.46292135826046e-07 6.596122115278566e-06 29.577365543156304 0.0 -3.1805546814635168e-15 0.0 -94.07151921143009 -1.1169214215624164 -175.59743456886645 3.0571186186615767e-06 2.3957658191898347e-06 -29.05834417680857 3.1805546814635168e-15 6.3611093629270335e-15 -1.7655625192200634e-31 1.0354429434005028 6.892583069051561 -29.89700999156758 0.054290343191835906 -0.28511103948512956 0.9367749954883153 -3.836305278578751e-33 -1.987846675914698e-16 -2.2114794269551013e-15 -6.4792701361507445 7.2567216689566445 30.8585407966012 -1.774736524909757 -1.5135423670793418 -5.49716343886634 1.9878466759146977e-16 5.4958305957167506e-34 3.1681306397390496e-16
9.5 15.600000381469727 3.5999999046325684 5.415525560388783 4.525857571008958 88.9452083855345 -3.681474822180841e-07 8.394313497796851e-08 -2.603951547653015 92.56281696153893 -8.993640073294493 172.81663321337115 -1.2145102690573035e-06 4.910420097824444e-06 29.613180823783477 -3.1805546814635164e-15 6.3611093629270335e-15 -6.3611093629270335e-15 -94.37208425911814 0.09896545295784286 -176.10486277345302 8.180160562875294e-07 4.0340916141934845e-07 -29.487909670842644 -3.1805546814635168e-15 8.827812596100317e-32 -3.1805546814635168e-15 0.2504868489929563 6.651567944265651 -31.518572326700117 0.15205541061541403 -0.419302126905458 1.3200551959760565 0.0 0.0 -2.7581372628316434e-15 -7.247219062778162 6.50144416714093 32.254565846748136 -1.6714197307213197 -1.2646810997986053 -4.585640094531969 0.0 0.0 -3.584336037508689e-15
9.5 15.5 3.700000047683716 5.052647943063306 4.860405656525065 89.34663697168948 -4.2230824259077266e-07 5.476013032292953e-07 -2.086068233759185 92.81250404337612 -9.447947897950238 173.61382672902616 -3.5267280266914854e-06 -2.0478744856024223e-07 29.346258809541375 0.0 0.0 -3.180554681463516e-15 -94.70462868341843 0.9145916890939678 -175.99425868714434 2.8621464430518965e-06 2.4607089444168468e-06 -30.315482340730853 0.0 0.0 -6.361109362927033e-15 -0.037673712601923794 6.561905805590613 -32.855340525010504 0.3814617775138542 -0.7402611548259757 2.2965865240398595 5.963540027744094e-16 -9.939233379573489e-17 3.068738305943315e-15 -7.534232925751545 6.0522875793952995 33.30754801933053 -1.43318927147203 -0.8079828427329391 -2.8911329626128457 3.975693351829396e-16 -3.975693351829396e-16 -3.1370705354278827e-15
9.5 15.5 3.9000000953674316 4.371906742223759 5.053348125161115 88.99950834393698 2.977979580553273e-07 -5.036716500113745e-07 -0.6128748795258211 93.18294375676503 -10.016394361365636 174.17130373452076 -2.152275364815735e-06 7.89765640917853e-07 30.19704704988901 6.361109362927033e-15 0.0 0.0 -94.67208920895777 1.993039569580471 -176.16732308240435 2.7773011607381583e-06 -5.191111672806536e-06 -30.732032011976962 -3.1805546814635168e-15 -6.3611093629270335e-15 -1.7655625192200634e-31 -0.4055403884474708 6.017503601308037 -32.994938267719434 0.6131459634444574 -0.6144749677742432 1.8412361888238091 3.9756933518293955e-16 -9.939233379573492e-17 -7.466849076404583e-15 -7.751275930692147 5.4596351916631125 35.59497435586823 -1.5371652123797857 -0.8705057693327932 -3.1739450052163463 0.0 0.0 -6.236868945682364e-15
9.5 15.5 4.0 3.663327435766702 5.0423761282379695 89.39599793984509 -3.203653672980442e-07 -1.74789010674526e-07 -0.20040658721230728 93.37253755923123 -9.055124142639604 174.20109870405335 1.3867212320781766e-06 1.2243342499335653e-06 31.483652204368475 0.0 6.361109362927035e-15 0.0 -94.45856266882745 3.129130361848824 -176.3910849938725 3.2564082212291723e-06 1.7736960124901775e-06 -31.00264052642725 3.1805546814635168e-15 -8.827812596100317e-32 -3.1805546814635168e-15 -0.22317103994182774 5.171966563082309 -33.15273256100092 0.3624812123427171 -0.4699977871229044 1.3956987496163722 1.5086593792163628e-33 9.93923337957349e-17 -1.7393658414253607e-15 -7.695825873859431 5.077695737034981 36.57175064662529 -1.620235265925719 -1.1236731280284968 -4.036758178794442 2.6509300520516088e-33 -3.975693351829396e-16 7.64078566054712e-16
